<?xml version="1.0" encoding="UTF-8"?>
<svg id="Layer_1" xmlns="http://www.w3.org/2000/svg" version="1.1" viewBox="0 0 283.5 90.7">
  <defs>
    <style>.st0 { fill: #1e3a5f; }</style>
  </defs>
  <g>
    <path class="st0" d="M38.8,45.2h-11.2c-1.1,0-2.1.9-2.1,2.1v11.3c0,1.1.9,2.1,2.1,2.1h11.2c1.1,0,2.1-.9,2.1-2.1v-11.3c0-1.1-.9-2.1-2.1-2.1Z"/>
    <path class="st0" d="M54.1,29.8h-11.2c-1.1,0-2.1.9-2.1,2.1v11.3c0,1.1.9,2.1,2.1,2.1h11.2c1.1,0,2.1-.9,2.1-2.1v-11.3c0-1.1-.9-2.1-2.1-2.1Z"/>
  </g>
  <path class="st0" d="M73.8,61c-6.8,0-10.6-3.5-10.6-9.1s2.8-7.9,10.1-8.5l5.5-.5c4.1-.4,5.2-1.2,5.2-3.4,0-3.8-2.2-6.2-7.1-6.2s-7.1,2-7.4,6.2h-4.6c0-5.9,3.7-9.7,12-9.7s12,3.8,12,9.7v13.2c0,4.1.3,6.7.9,7.7h-4.2c-.9-1.3-1.3-2.5-1.3-5.7-1.6,4.2-5.2,6.3-10.4,6.3h0ZM75,57.6c5.9,0,8.9-4.7,8.9-10.3v-3c-.7.9-2.5,1.5-5.2,1.7l-4.1.4c-4.8.4-6.7,2.4-6.7,5.2s2.1,6,7.1,6h0ZM107.1,61c-8.9,0-14-5.9-14-15.6s5.1-15.6,14-15.6,13.1,6,13.1,11.3h-4.3c-.6-4-3-7.6-8.7-7.6s-9.2,4-9.2,11.9,3.5,11.9,9.2,11.9,8-2.7,8.7-7.8h4.3c0,5.9-4.2,11.5-13.1,11.5ZM135.3,61c-6.8,0-10-3.5-10-10.8v-19.9h4.8v19.1c0,5,1.8,7.6,6.6,7.6s8.2-3.9,8.2-10v-16.8h4.8v30.1h-4.6v-5.5c-1.7,3.7-4.8,6.1-9.9,6.1h0ZM194.8,60.4h-4.6v-19.2c0-5-1.5-7.5-5.5-7.5s-7.1,3.8-7.1,9.8v16.9h-4.6v-19.2c0-5-1.6-7.5-5.4-7.5s-7,3.8-7,9.8v16.9h-4.6v-30.1h4.6v5.5c1.4-3.7,4.4-6.1,8.5-6.1s7.2,2.2,8.2,6.5c1.5-4.2,4.8-6.5,8.9-6.5,6,0,8.8,3.5,8.8,10.8v19.9h-.2ZM214.1,61c-9.2,0-14.3-5.9-14.3-15.6s5.1-15.6,14.3-15.6,14.4,6,14.4,15.6-5.1,15.6-14.4,15.6h0ZM214.1,57.2c6.1,0,9.6-4,9.6-11.9s-3.5-11.9-9.6-11.9-9.5,4-9.5,11.9,3.5,11.9,9.5,11.9h0ZM258,60.4h-4.8v-19.1c0-5-1.8-7.6-6.6-7.6s-8.2,3.9-8.2,10v16.8h-4.8v-30.1h4.6v5.5c1.7-3.7,4.8-6.1,9.8-6.1s10.1,3.5,10.1,10.8v19.9h-.1Z"/>
</svg>
